<?xml version="1.0" encoding="UTF-8" standalone="no"?>
<svg
   xmlns:dc="http://purl.org/dc/elements/1.1/"
   xmlns:cc="http://creativecommons.org/ns#"
   xmlns:rdf="http://www.w3.org/1999/02/22-rdf-syntax-ns#"
   xmlns:svg="http://www.w3.org/2000/svg"
   xmlns="http://www.w3.org/2000/svg"
   xmlns:sodipodi="http://sodipodi.sourceforge.net/DTD/sodipodi-0.dtd"
   xmlns:inkscape="http://www.inkscape.org/namespaces/inkscape"
   width="331pt"
   height="331pt"
   viewBox="0 0 331 331"
   data-ember-extension="1"
   version="1.1"
   id="svg867"
   sodipodi:docname="button.svg"
   inkscape:version="1.0.2 (e86c870879, 2021-01-15)">
  <metadata
     id="metadata873">
    <rdf:RDF>
      <cc:Work
         rdf:about="">
        <dc:format>image/svg+xml</dc:format>
        <dc:type
           rdf:resource="http://purl.org/dc/dcmitype/StillImage" />
        <dc:title />
      </cc:Work>
    </rdf:RDF>
  </metadata>
  <defs
     id="defs871" />
  <sodipodi:namedview
     pagecolor="#ffffff"
     bordercolor="#666666"
     borderopacity="1"
     objecttolerance="10"
     gridtolerance="10"
     guidetolerance="10"
     inkscape:pageopacity="0"
     inkscape:pageshadow="2"
     inkscape:window-width="2130"
     inkscape:window-height="1217"
     id="namedview869"
     showgrid="false"
     inkscape:zoom="1.6654079"
     inkscape:cx="220.66667"
     inkscape:cy="220.66667"
     inkscape:window-x="0"
     inkscape:window-y="27"
     inkscape:window-maximized="0"
     inkscape:current-layer="svg867"
     inkscape:document-rotation="0" />
  <circle
     style="fill:#cd0000;fill-opacity:1;stroke-width:2.735433;stroke:#020202;stroke-opacity:1;stroke-miterlimit:4;stroke-dasharray:none"
     id="path877"
     cx="165.5"
     cy="165.5"
     r="164.79204" />
  <path
     d="m 165.49228,64.427726 c 19.3866,6.906309 37.33072,17.796228 52.46674,31.734341 14.51755,13.529653 26.83585,30.103643 32.69856,49.254003 3.97348,12.31381 3.15589,25.62065 0.52925,38.12207 -2.62385,11.6454 -7.7476,22.7466 -15.20901,32.0884 8.46211,8.27388 16.84291,16.62971 25.32679,24.88182 -1.1299,4.22753 -2.86145,8.5479 -6.33759,11.39763 -2.90665,2.50893 -6.6278,3.72193 -10.29001,4.63396 -8.2854,-8.60809 -16.61306,-17.17328 -24.90294,-25.77688 -10.32649,7.05486 -22.78886,10.77339 -35.23329,11.32272 -15.67382,0.69281 -31.34252,-4.35955 -44.1314,-13.33373 -6.89607,-4.73954 -13.1122,-10.40653 -18.81486,-16.51446 -0.97669,0.96075 -2.04257,1.82278 -3.13861,2.6439 0.27181,2.04961 0.56629,4.09659 0.84891,6.14665 -2.14008,0.12312 -4.27665,0.6464 -6.0749,1.8523 -5.54817,3.51609 -9.4007,8.9743 -13.338869,14.09817 -4.883202,6.33945 -9.272011,13.37599 -16.077168,17.86666 -4.124067,2.54766 -10.226619,1.47091 -12.752383,-2.81143 -2.641586,-4.20142 -1.11774,-9.62416 1.727438,-13.31004 6.953697,-10.22022 19.369314,-14.58861 27.142515,-24.00404 2.021707,-2.52974 3.550617,-5.46187 4.309047,-8.61834 1.9854,0.12688 3.97099,0.25594 5.95709,0.38527 1.68217,-1.70618 3.37263,-3.40373 5.0484,-5.11543 1.86842,-0.0483 3.7725,0.15144 5.61725,-0.20875 1.9256,-1.69838 3.46065,-3.78648 5.19967,-5.66758 1.90479,0.53364 2.98719,2.32032 4.36564,3.59625 8.51972,7.75977 18.26297,14.52203 29.36737,17.97039 14.19998,4.54918 30.02041,3.10396 43.3407,-3.51546 -26.68026,-27.46968 -53.27154,-55.02708 -79.9153,-82.53389 -5.97457,6.29058 -11.92584,12.60512 -17.98575,18.81358 -7.400591,-7.54978 -14.873524,-15.02846 -22.311888,-22.54109 14.020076,-14.03415 28.197658,-27.910803 42.295198,-41.867493 12.18833,3.318058 24.36066,6.694394 36.55987,9.97308 -8.33662,7.568343 -16.81089,14.983653 -25.17632,22.519323 27.79877,27.25264 55.45924,54.64996 83.30218,81.86163 6.72129,-8.17784 10.5045,-18.59077 11.0186,-29.13368 0.94816,-13.94964 -2.27977,-27.82694 -6.87813,-40.91225 -6.49976,-17.26931 -18.9269,-31.486573 -32.43349,-43.717158 -8.44163,-7.503667 -17.14192,-14.726898 -26.12262,-21.576876 z"
     fill="#ffd600"
     id="path865"
     style="stroke-width:2.24999995;stroke:none;stroke-opacity:1;stroke-miterlimit:4;stroke-dasharray:none" />
</svg>
