<?xml version="1.0" encoding="UTF-8" standalone="no"?>
<svg
   xmlns:dc="http://purl.org/dc/elements/1.1/"
   xmlns:cc="http://creativecommons.org/ns#"
   xmlns:rdf="http://www.w3.org/1999/02/22-rdf-syntax-ns#"
   xmlns:svg="http://www.w3.org/2000/svg"
   xmlns="http://www.w3.org/2000/svg"
   xmlns:sodipodi="http://sodipodi.sourceforge.net/DTD/sodipodi-0.dtd"
   xmlns:inkscape="http://www.inkscape.org/namespaces/inkscape"
   width="432.78317"
   height="432.78317"
   viewBox="0 0 324.58737 324.58737"
   data-ember-extension="1"
   version="1.1"
   id="svg867"
   sodipodi:docname="icon.svg"
   inkscape:version="1.0.2 (e86c870879, 2021-01-15)"
   inkscape:export-filename="/home/waked/Code/Web/communism-button/images/homescreen1024.png"
   inkscape:export-xdpi="227.14377"
   inkscape:export-ydpi="227.14377">
  <metadata
     id="metadata873">
    <rdf:RDF>
      <cc:Work
         rdf:about="">
        <dc:format>image/svg+xml</dc:format>
        <dc:type
           rdf:resource="http://purl.org/dc/dcmitype/StillImage" />
        <dc:title></dc:title>
      </cc:Work>
    </rdf:RDF>
  </metadata>
  <defs
     id="defs871" />
  <sodipodi:namedview
     pagecolor="#ffffff"
     bordercolor="#666666"
     borderopacity="1"
     objecttolerance="10"
     gridtolerance="10"
     guidetolerance="10"
     inkscape:pageopacity="0"
     inkscape:pageshadow="2"
     inkscape:window-width="2130"
     inkscape:window-height="1217"
     id="namedview869"
     showgrid="false"
     inkscape:zoom="1.6654079"
     inkscape:cx="216.39159"
     inkscape:cy="211.17565"
     inkscape:window-x="0"
     inkscape:window-y="27"
     inkscape:window-maximized="0"
     inkscape:current-layer="svg867"
     inkscape:document-rotation="0"
     units="px"
     fit-margin-top="0"
     fit-margin-left="0"
     fit-margin-right="0"
     fit-margin-bottom="0" />
  <rect
     style="fill:#cd0000;stroke-width:2.73543"
     id="rect899"
     width="324.58737"
     height="324.58737"
     x="-9.130859e-07"
     y="-9.1308596e-07" />
  <path
     d="m 162.28727,74.889687 c 16.12938,5.745954 31.05864,14.806217 43.6516,26.402543 12.07841,11.25647 22.32706,25.0458 27.20476,40.97864 3.30588,10.24492 2.62565,21.31603 0.44033,31.71704 -2.18301,9.68881 -6.4459,18.92486 -12.65369,26.69711 7.04036,6.88375 14.01307,13.83569 21.07154,20.70133 -0.94006,3.51725 -2.38069,7.11174 -5.27279,9.48267 -2.41829,2.0874 -5.51424,3.0966 -8.56114,3.8554 -6.89334,-7.16182 -13.82184,-14.28794 -20.71891,-21.44602 -8.5915,5.86955 -18.96002,8.96332 -29.31361,9.42035 -13.04041,0.57641 -26.07655,-3.62708 -36.71672,-11.09348 -5.73744,-3.94323 -10.90917,-8.65809 -15.65371,-13.7398 -0.81259,0.79933 -1.69939,1.51653 -2.61128,2.19969 0.22614,1.70524 0.47115,3.4083 0.70628,5.11392 -1.78051,0.10244 -3.55811,0.5378 -5.05423,1.54109 -4.616,2.92534 -7.82125,7.4665 -11.09776,11.72949 -4.06275,5.27433 -7.714184,11.12864 -13.375981,14.86481 -3.431167,2.11962 -8.508407,1.22378 -10.609808,-2.33907 -2.197763,-3.49552 -0.929944,-8.00717 1.437205,-11.07377 5.78538,-8.50308 16.115004,-12.13752 22.582204,-19.97103 1.68203,-2.10471 2.95406,-4.5442 3.58507,-7.17034 1.65182,0.10556 3.3038,0.21294 4.95621,0.32054 1.39955,-1.41952 2.80598,-2.83186 4.2002,-4.25597 1.5545,-0.0402 3.13867,0.126 4.67348,-0.17368 1.60207,-1.41303 2.87921,-3.1503 4.32605,-4.71535 1.58476,0.44399 2.4853,1.93048 3.63215,2.99203 7.08829,6.45603 15.19454,12.08213 24.43325,14.95112 11.81419,3.78486 24.97657,2.58245 36.05887,-2.92481 -22.19761,-22.8544 -44.32119,-45.78178 -66.48843,-68.66707 -4.97076,5.23368 -9.92214,10.48729 -14.9639,15.65264 -6.15719,-6.28131 -12.374569,-12.50347 -18.563186,-18.75387 11.664506,-11.67622 23.460066,-23.2214 35.189026,-34.833176 10.14052,2.760576 20.26773,5.569642 30.41731,8.297466 -6.93595,6.29675 -13.98643,12.46619 -20.94635,18.73576 23.12819,22.67382 46.14132,45.46802 69.30627,68.10775 5.59202,-6.80385 8.7396,-15.46726 9.16732,-24.23882 0.78886,-11.60591 -1.89673,-23.15163 -5.72251,-34.03843 -5.40771,-14.36783 -15.74692,-26.19638 -26.98422,-36.37207 -7.02332,-6.242946 -14.26184,-12.252575 -21.73366,-17.951663 z"
     fill="#ffd600"
     id="path865"
     style="stroke:none;stroke-width:1.87197;stroke-miterlimit:4;stroke-dasharray:none;stroke-opacity:1" />
</svg>
