<?xml version="1.0" encoding="UTF-8" standalone="no"?>
<svg
   xmlns:dc="http://purl.org/dc/elements/1.1/"
   xmlns:cc="http://creativecommons.org/ns#"
   xmlns:rdf="http://www.w3.org/1999/02/22-rdf-syntax-ns#"
   xmlns:svg="http://www.w3.org/2000/svg"
   xmlns="http://www.w3.org/2000/svg"
   xmlns:sodipodi="http://sodipodi.sourceforge.net/DTD/sodipodi-0.dtd"
   xmlns:inkscape="http://www.inkscape.org/namespaces/inkscape"
   version="1.1"
   id="Layer_1"
   x="0px"
   y="0px"
   viewBox="0 0 1770.2 780.1"
   style="enable-background:new 0 0 1770.2 780.1;"
   xml:space="preserve"
   data-ember-extension="1"
   sodipodi:docname="nano+mark.svg"
   inkscape:version="1.0.2 (e86c870879, 2021-01-15)"><metadata
   id="metadata913"><rdf:RDF><cc:Work
       rdf:about=""><dc:format>image/svg+xml</dc:format><dc:type
         rdf:resource="http://purl.org/dc/dcmitype/StillImage" /></cc:Work></rdf:RDF></metadata><defs
   id="defs911" /><sodipodi:namedview
   pagecolor="#ffffff"
   bordercolor="#666666"
   borderopacity="1"
   objecttolerance="10"
   gridtolerance="10"
   guidetolerance="10"
   inkscape:pageopacity="0"
   inkscape:pageshadow="2"
   inkscape:window-width="2369"
   inkscape:window-height="1227"
   id="namedview909"
   showgrid="false"
   inkscape:zoom="0.51802056"
   inkscape:cx="885.1"
   inkscape:cy="390.05"
   inkscape:window-x="0"
   inkscape:window-y="27"
   inkscape:window-maximized="0"
   inkscape:current-layer="Layer_1" />
<style
   type="text/css"
   id="style898">
	.st0{fill:#4A90E2;}
	.st1{fill:#000034;}
	.st2{fill:#FFFFFF;}
</style>
<g
   id="g906"
   style="fill:#ffd900;fill-opacity:1">
	<path
   class="st0"
   d="M985.7,390c0,55.6-45.1,100.6-100.6,100.6S784.4,445.6,784.4,390c0-75.5-25.2-100.6-100.6-100.6   S583.2,314.6,583.2,390c0,55.6-45.1,100.6-100.6,100.6S381.9,445.6,381.9,390c0-55.6,45.1-100.6,100.6-100.6   c75.5,0,100.6-25.2,100.6-100.6c0-55.6,45.1-100.6,100.6-100.6s100.6,45.1,100.6,100.6c0,75.5,25.2,100.6,100.6,100.6   C940.7,289.4,985.7,334.5,985.7,390z"
   id="path900"
   style="fill:#ffd900;fill-opacity:1" />
	<circle
   class="st0"
   cx="281.2"
   cy="591.3"
   r="100.6"
   id="circle902"
   style="fill:#ffd900;fill-opacity:1" />
	<path
   class="st0"
   d="M1589.6,188.7c0,55.6-45.1,100.6-100.6,100.6c-75.5,0-100.6,25.2-100.6,100.6c0,55.6-45.1,100.6-100.6,100.6   c-75.5,0-100.6,25.2-100.6,100.6c0,55.6-45.1,100.6-100.6,100.6c-55.6,0-100.6-45.1-100.6-100.6c0-55.6,45.1-100.6,100.6-100.6   c75.5,0,100.6-25.2,100.6-100.6c0-55.6,45.1-100.6,100.6-100.6c75.5,0,100.6-25.2,100.6-100.6c0-55.6,45.1-100.6,100.6-100.6   C1544.5,88.1,1589.6,133.2,1589.6,188.7z"
   id="path904"
   style="fill:#ffd900;fill-opacity:1" />
</g>
</svg>
